<svg width="197" height="44" viewBox="0 0 197 44" fill="none" xmlns="http://www.w3.org/2000/svg">
<path d="M54.3523 35H45.8764V8.81818H54.6207C57.1861 8.81818 59.3892 9.34233 61.2301 10.3906C63.071 11.4304 64.4815 12.9261 65.4616 14.8778C66.4503 16.821 66.9446 19.152 66.9446 21.8707C66.9446 24.598 66.446 26.9418 65.4489 28.902C64.4602 30.8622 63.0284 32.3707 61.1534 33.4276C59.2784 34.4759 57.0114 35 54.3523 35ZM49.8267 31.5483H54.1349C56.1293 31.5483 57.7869 31.1733 59.108 30.4233C60.429 29.6648 61.4176 28.5696 62.0739 27.1378C62.7301 25.6974 63.0582 23.9418 63.0582 21.8707C63.0582 19.8168 62.7301 18.0739 62.0739 16.642C61.4261 15.2102 60.4588 14.1236 59.1719 13.3821C57.8849 12.6406 56.2869 12.2699 54.3778 12.2699H49.8267V31.5483ZM80.0131 35.3963C78.0785 35.3963 76.4123 34.983 75.0146 34.1562C73.6254 33.321 72.5515 32.1491 71.793 30.6406C71.043 29.1236 70.668 27.3466 70.668 25.3097C70.668 23.2983 71.043 21.5256 71.793 19.9915C72.5515 18.4574 73.6083 17.2599 74.9634 16.3991C76.3271 15.5384 77.9208 15.108 79.7447 15.108C80.8526 15.108 81.9265 15.2912 82.9663 15.6577C84.006 16.0241 84.9393 16.5994 85.766 17.3835C86.5927 18.1676 87.2447 19.1861 87.7219 20.4389C88.1992 21.6832 88.4379 23.196 88.4379 24.9773V26.3324H72.8285V23.4688H84.6921C84.6921 22.4631 84.4876 21.5724 84.0785 20.7969C83.6694 20.0128 83.0941 19.3949 82.3526 18.9432C81.6197 18.4915 80.7589 18.2656 79.7702 18.2656C78.6964 18.2656 77.7589 18.5298 76.9577 19.0582C76.1651 19.5781 75.5515 20.2599 75.1168 21.1037C74.6907 21.9389 74.4776 22.8466 74.4776 23.8267V26.0639C74.4776 27.3764 74.7077 28.4929 75.168 29.4134C75.6367 30.3338 76.2887 31.0369 77.1239 31.5227C77.9592 32 78.935 32.2386 80.0515 32.2386C80.7759 32.2386 81.4364 32.1364 82.033 31.9318C82.6296 31.7187 83.1452 31.4034 83.5799 30.9858C84.0146 30.5682 84.3469 30.0526 84.5771 29.4389L88.195 30.0909C87.9052 31.1562 87.3853 32.0895 86.6353 32.8906C85.8938 33.6832 84.9606 34.3011 83.8356 34.7443C82.7191 35.179 81.445 35.3963 80.0131 35.3963ZM108.915 15.3636L101.794 35H97.7031L90.5696 15.3636H94.6733L99.6463 30.4744H99.8509L104.811 15.3636H108.915ZM120.072 42.7727C118.512 42.7727 117.17 42.5682 116.045 42.1591C114.929 41.75 114.017 41.2088 113.309 40.5355C112.602 39.8622 112.074 39.125 111.724 38.3239L115.01 36.9688C115.24 37.3438 115.547 37.7401 115.93 38.1577C116.322 38.5838 116.85 38.946 117.515 39.2443C118.189 39.5426 119.054 39.6918 120.11 39.6918C121.559 39.6918 122.757 39.3381 123.703 38.6307C124.649 37.9318 125.122 36.8153 125.122 35.2812V31.4205H124.879C124.649 31.8381 124.316 32.3026 123.882 32.8139C123.456 33.3253 122.868 33.7685 122.118 34.1435C121.368 34.5185 120.392 34.706 119.19 34.706C117.639 34.706 116.241 34.3437 114.997 33.6193C113.761 32.8864 112.781 31.8082 112.056 30.3849C111.341 28.9531 110.983 27.1932 110.983 25.1051C110.983 23.017 111.336 21.2273 112.044 19.7358C112.76 18.2443 113.74 17.1023 114.984 16.3097C116.228 15.5085 117.639 15.108 119.216 15.108C120.434 15.108 121.419 15.3125 122.169 15.7216C122.919 16.1222 123.502 16.5909 123.92 17.1278C124.346 17.6648 124.674 18.1378 124.904 18.5469H125.186V15.3636H128.931V35.4347C128.931 37.1222 128.539 38.5071 127.755 39.5895C126.971 40.6719 125.91 41.473 124.572 41.9929C123.243 42.5128 121.743 42.7727 120.072 42.7727ZM120.034 31.5355C121.133 31.5355 122.062 31.2798 122.821 30.7685C123.588 30.2486 124.167 29.5071 124.559 28.544C124.96 27.5724 125.16 26.4091 125.16 25.054C125.16 23.733 124.964 22.5696 124.572 21.5639C124.18 20.5582 123.605 19.7741 122.846 19.2116C122.088 18.6406 121.15 18.3551 120.034 18.3551C118.883 18.3551 117.924 18.6534 117.157 19.25C116.39 19.8381 115.811 20.6392 115.419 21.6534C115.035 22.6676 114.843 23.8011 114.843 25.054C114.843 26.3409 115.039 27.4702 115.431 28.4418C115.824 29.4134 116.403 30.1719 117.17 30.7173C117.946 31.2628 118.9 31.5355 120.034 31.5355ZM134.058 35V15.3636H137.752V18.483H137.957C138.315 17.4261 138.946 16.5952 139.849 15.9901C140.761 15.3764 141.792 15.0696 142.943 15.0696C143.181 15.0696 143.463 15.0781 143.787 15.0952C144.119 15.1122 144.379 15.1335 144.566 15.1591V18.8153C144.413 18.7727 144.14 18.7259 143.748 18.6747C143.356 18.6151 142.964 18.5852 142.572 18.5852C141.669 18.5852 140.863 18.777 140.156 19.1605C139.457 19.5355 138.903 20.0597 138.494 20.733C138.085 21.3977 137.88 22.1562 137.88 23.0085V35H134.058ZM147.874 35V15.3636H151.697V35H147.874ZM149.805 12.3338C149.14 12.3338 148.569 12.1122 148.092 11.669C147.623 11.2173 147.388 10.6804 147.388 10.0582C147.388 9.42756 147.623 8.89062 148.092 8.44744C148.569 7.99574 149.14 7.76989 149.805 7.76989C150.469 7.76989 151.036 7.99574 151.505 8.44744C151.982 8.89062 152.221 9.42756 152.221 10.0582C152.221 10.6804 151.982 11.2173 151.505 11.669C151.036 12.1122 150.469 12.3338 149.805 12.3338ZM164.19 35.3835C162.605 35.3835 161.19 34.9787 159.946 34.169C158.71 33.3509 157.738 32.1875 157.031 30.679C156.332 29.1619 155.983 27.3423 155.983 25.2202C155.983 23.098 156.336 21.2827 157.044 19.7741C157.76 18.2656 158.74 17.1108 159.984 16.3097C161.228 15.5085 162.639 15.108 164.216 15.108C165.434 15.108 166.414 15.3125 167.156 15.7216C167.906 16.1222 168.485 16.5909 168.895 17.1278C169.312 17.6648 169.636 18.1378 169.866 18.5469H170.096V8.81818H173.919V35H170.186V31.9446H169.866C169.636 32.3622 169.304 32.8395 168.869 33.3764C168.443 33.9134 167.855 34.3821 167.105 34.7827C166.355 35.1832 165.383 35.3835 164.19 35.3835ZM165.034 32.1236C166.133 32.1236 167.062 31.8338 167.821 31.2543C168.588 30.6662 169.167 29.8523 169.559 28.8125C169.96 27.7727 170.16 26.5625 170.16 25.1818C170.16 23.8182 169.964 22.625 169.572 21.6023C169.18 20.5795 168.605 19.7827 167.846 19.2116C167.088 18.6406 166.15 18.3551 165.034 18.3551C163.883 18.3551 162.924 18.6534 162.157 19.25C161.39 19.8466 160.811 20.6605 160.419 21.6918C160.035 22.723 159.843 23.8864 159.843 25.1818C159.843 26.4943 160.039 27.6747 160.431 28.723C160.824 29.7713 161.403 30.6023 162.17 31.2159C162.946 31.821 163.9 32.1236 165.034 32.1236ZM194.089 20.1577L190.624 20.7713C190.479 20.3281 190.249 19.9062 189.934 19.5057C189.627 19.1051 189.21 18.777 188.681 18.5213C188.153 18.2656 187.492 18.1378 186.7 18.1378C185.617 18.1378 184.714 18.3807 183.989 18.8665C183.265 19.3437 182.903 19.9616 182.903 20.7202C182.903 21.3764 183.146 21.9048 183.631 22.3054C184.117 22.706 184.901 23.0341 185.984 23.2898L189.103 24.0057C190.91 24.4233 192.256 25.0668 193.143 25.9361C194.029 26.8054 194.472 27.9347 194.472 29.3239C194.472 30.5 194.131 31.5483 193.45 32.4688C192.776 33.3807 191.835 34.0966 190.624 34.6165C189.423 35.1364 188.029 35.3963 186.444 35.3963C184.245 35.3963 182.451 34.9276 181.062 33.9901C179.673 33.044 178.82 31.7017 178.505 29.9631L182.2 29.4006C182.43 30.3636 182.903 31.0923 183.619 31.5866C184.335 32.0724 185.268 32.3153 186.418 32.3153C187.671 32.3153 188.673 32.0554 189.423 31.5355C190.173 31.0071 190.548 30.3636 190.548 29.6051C190.548 28.9915 190.317 28.4759 189.857 28.0582C189.406 27.6406 188.711 27.3253 187.773 27.1122L184.45 26.3835C182.617 25.9659 181.262 25.3011 180.384 24.3892C179.515 23.4773 179.08 22.3224 179.08 20.9247C179.08 19.7656 179.404 18.7514 180.052 17.8821C180.7 17.0128 181.594 16.3352 182.737 15.8494C183.879 15.3551 185.187 15.108 186.661 15.108C188.783 15.108 190.454 15.5682 191.673 16.4886C192.891 17.4006 193.697 18.6236 194.089 20.1577Z" fill="white"/>
<path d="M8.75 5H1.45833C1.07156 5 0.700627 5.15365 0.427136 5.42714C0.153645 5.70063 0 6.07156 0 6.45833L0 13.75C0 14.1368 0.153645 14.5077 0.427136 14.7812C0.700627 15.0547 1.07156 15.2083 1.45833 15.2083H8.75C9.13677 15.2083 9.50771 15.0547 9.7812 14.7812C10.0547 14.5077 10.2083 14.1368 10.2083 13.75V6.45833C10.2083 6.07156 10.0547 5.70063 9.7812 5.42714C9.50771 5.15365 9.13677 5 8.75 5ZM8.75 17.3958H1.45833C1.07156 17.3958 0.700627 17.5495 0.427136 17.823C0.153645 18.0965 0 18.4674 0 18.8542L0 26.1458C0 26.5326 0.153645 26.9035 0.427136 27.177C0.700627 27.4505 1.07156 27.6042 1.45833 27.6042H8.75C9.13677 27.6042 9.50771 27.4505 9.7812 27.177C10.0547 26.9035 10.2083 26.5326 10.2083 26.1458V18.8542C10.2083 18.4674 10.0547 18.0965 9.7812 17.823C9.50771 17.5495 9.13677 17.3958 8.75 17.3958ZM22.6042 26.1458V18.8542C22.6042 18.4674 22.4505 18.0965 22.177 17.823C21.9035 17.5495 21.5326 17.3958 21.1458 17.3958H13.8542C13.4674 17.3958 13.0965 17.5495 12.823 17.823C12.5495 18.0965 12.3958 18.4674 12.3958 18.8542V26.1458C12.3958 26.5326 12.5495 26.9035 12.823 27.177C13.0965 27.4505 13.4674 27.6042 13.8542 27.6042H21.1458C21.5326 27.6042 21.9035 27.4505 22.177 27.177C22.4505 26.9035 22.6042 26.5326 22.6042 26.1458ZM22.6042 13.75V6.45833C22.6042 6.07156 22.4505 5.70063 22.177 5.42714C21.9035 5.15365 21.5326 5 21.1458 5H13.8542C13.4674 5 13.0965 5.15365 12.823 5.42714C12.5495 5.70063 12.3958 6.07156 12.3958 6.45833V13.75C12.3958 14.1368 12.5495 14.5077 12.823 14.7812C13.0965 15.0547 13.4674 15.2083 13.8542 15.2083H21.1458C21.5326 15.2083 21.9035 15.0547 22.177 14.7812C22.4505 14.5077 22.6042 14.1368 22.6042 13.75ZM33.5417 5H26.25C25.8632 5 25.4923 5.15365 25.2188 5.42714C24.9453 5.70063 24.7917 6.07156 24.7917 6.45833V13.75C24.7917 14.1368 24.9453 14.5077 25.2188 14.7812C25.4923 15.0547 25.8632 15.2083 26.25 15.2083H33.5417C33.9284 15.2083 34.2994 15.0547 34.5729 14.7812C34.8464 14.5077 35 14.1368 35 13.75V6.45833C35 6.07156 34.8464 5.70063 34.5729 5.42714C34.2994 5.15365 33.9284 5 33.5417 5ZM26.25 27.6042H33.5417C33.9284 27.6042 34.2994 27.4505 34.5729 27.177C34.8464 26.9035 35 26.5326 35 26.1458V18.8542C35 18.4674 34.8464 18.0965 34.5729 17.823C34.2994 17.5495 33.9284 17.3958 33.5417 17.3958H26.25C25.8632 17.3958 25.4923 17.5495 25.2188 17.823C24.9453 18.0965 24.7917 18.4674 24.7917 18.8542V26.1458C24.7917 26.5326 24.9453 26.9035 25.2188 27.177C25.4923 27.4505 25.8632 27.6042 26.25 27.6042ZM26.25 40H33.5417C33.9284 40 34.2994 39.8464 34.5729 39.5729C34.8464 39.2994 35 38.9284 35 38.5417V31.25C35 30.8632 34.8464 30.4923 34.5729 30.2188C34.2994 29.9453 33.9284 29.7917 33.5417 29.7917H26.25C25.8632 29.7917 25.4923 29.9453 25.2188 30.2188C24.9453 30.4923 24.7917 30.8632 24.7917 31.25V38.5417C24.7917 38.9284 24.9453 39.2994 25.2188 39.5729C25.4923 39.8464 25.8632 40 26.25 40ZM0 31.25V38.5417C0 38.9284 0.153645 39.2994 0.427136 39.5729C0.700627 39.8464 1.07156 40 1.45833 40H8.75C9.13677 40 9.50771 39.8464 9.7812 39.5729C10.0547 39.2994 10.2083 38.9284 10.2083 38.5417V31.25C10.2083 30.8632 10.0547 30.4923 9.7812 30.2188C9.50771 29.9453 9.13677 29.7917 8.75 29.7917H1.45833C1.07156 29.7917 0.700627 29.9453 0.427136 30.2188C0.153645 30.4923 0 30.8632 0 31.25ZM12.3958 31.25V38.5417C12.3958 38.9284 12.5495 39.2994 12.823 39.5729C13.0965 39.8464 13.4674 40 13.8542 40H21.1458C21.5326 40 21.9035 39.8464 22.177 39.5729C22.4505 39.2994 22.6042 38.9284 22.6042 38.5417V31.25C22.6042 30.8632 22.4505 30.4923 22.177 30.2188C21.9035 29.9453 21.5326 29.7917 21.1458 29.7917H13.8542C13.4674 29.7917 13.0965 29.9453 12.823 30.2188C12.5495 30.4923 12.3958 30.8632 12.3958 31.25Z" fill="white"/>
</svg>
